<?xml version="1.0"?>
<svg xmlns="http://www.w3.org/2000/svg" id="Capa_1" enable-background="new 0 0 512 512" height="512px" viewBox="0 0 512 512" width="512px" class=""><g><g><g><path d="m367.12 92.931h-72.519l56.45-81.147c2.365-3.4 1.526-8.075-1.874-10.44-3.401-2.366-8.075-1.526-10.44 1.874l-62.409 89.713h-30.215l56.45-81.147c2.365-3.4 1.526-8.075-1.874-10.44-3.401-2.366-8.075-1.526-10.44 1.874l-34.249 49.234-34.25-49.234c-2.365-3.399-7.039-4.24-10.44-1.874-3.4 2.365-4.239 7.04-1.874 10.44l37.427 53.801-15.108 21.717-58.493-84.084c-2.365-3.399-7.038-4.24-10.44-1.874-3.4 2.365-4.239 7.04-1.874 10.44l56.45 81.147h-72.518c-20.843 0-37.8 16.961-37.8 37.81v226.449c0 4.142 3.358 7.5 7.5 7.5s7.5-3.358 7.5-7.5v-226.449c0-12.578 10.228-22.81 22.8-22.81h63.213v24.83c0 4.142 3.358 7.5 7.5 7.5h80.813c4.142 0 7.5-3.358 7.5-7.5v-24.83h63.213c12.572 0 22.8 10.232 22.8 22.81v30.99c0 4.142 3.358 7.5 7.5 7.5s7.5-3.358 7.5-7.5v-30.99c.001-20.849-16.956-37.81-37.799-37.81zm-78.213 32.33h-65.813v-17.325h65.813z" data-original="#000000" class="active-path" data-old_color="#000000" fill="#8BC852"/><path d="m397.42 189.231c-4.142 0-7.5 3.358-7.5 7.5v277.469c0 12.572-10.228 22.8-22.8 22.8h-222.24c-12.572 0-22.8-10.228-22.8-22.8v-82.01c0-4.142-3.358-7.5-7.5-7.5s-7.5 3.358-7.5 7.5v82.01c0 20.843 16.957 37.8 37.8 37.8h222.24c20.843 0 37.8-16.957 37.8-37.8v-277.47c0-4.142-3.358-7.499-7.5-7.499z" data-original="#000000" class="active-path" data-old_color="#000000" fill="#8BC852"/><path d="m171.147 404.923h169.707c4.142 0 7.5-3.358 7.5-7.5v-218.195c0-4.142-3.358-7.5-7.5-7.5h-169.707c-4.142 0-7.5 3.358-7.5 7.5v218.195c0 4.142 3.358 7.5 7.5 7.5zm162.206-15h-27.427v-12.703c0-4.142-3.358-7.5-7.5-7.5s-7.5 3.358-7.5 7.5v12.703h-69.853v-12.703c0-4.142-3.358-7.5-7.5-7.5s-7.5 3.358-7.5 7.5v12.703h-27.427v-36.947c0-18.145 14.762-32.906 32.906-32.906h88.894c18.145 0 32.906 14.762 32.906 32.906v36.947zm-120.361-127.862c0-23.715 19.293-43.008 43.008-43.008s43.008 19.293 43.008 43.008-19.293 43.009-43.008 43.009-43.008-19.294-43.008-43.009zm120.361-75.333v131.48c-8.59-8.134-20.171-13.139-32.906-13.139h-5.565c11.738-10.622 19.126-25.968 19.126-43.008 0-31.986-26.022-58.008-58.008-58.008s-58.008 26.022-58.008 58.008c0 17.04 7.388 32.386 19.126 43.008h-5.565c-12.735 0-24.317 5.005-32.906 13.139v-131.48z" data-original="#000000" class="active-path" data-old_color="#000000" fill="#8BC852"/><path d="m163.647 462.073c0 4.142 3.358 7.5 7.5 7.5h169.707c4.142 0 7.5-3.358 7.5-7.5v-32.325c0-4.142-3.358-7.5-7.5-7.5h-169.707c-4.142 0-7.5 3.358-7.5 7.5zm15-24.825h154.707v17.325h-154.707z" data-original="#000000" class="active-path" data-old_color="#000000" fill="#8BC852"/></g></g></g> </svg>
