<?xml version="1.0"?>
<svg xmlns="http://www.w3.org/2000/svg" id="Capa_1" enable-background="new 0 0 512.154 512.154" height="512px" viewBox="0 0 512.154 512.154" width="512px"><g><g><path d="m512.154 434.978c0-20.495-7.981-39.762-22.473-54.254-2.163-2.163-4.434-4.156-6.783-6.012 19.054-36.405 29.102-77.272 29.102-118.635 0-57.833-18.817-112.406-54.418-157.817-.191-.244-.398-.468-.612-.681.224-1.626.128-3.31-.318-4.974l-13.473-50.28c-1.169-4.365-4.474-7.669-8.838-8.839-4.368-1.169-8.879.04-12.075 3.235l-13.744 13.744c-44.331-32.984-96.917-50.388-152.522-50.388-41.515 0-82.516 10.119-119.023 29.305-14.062-17.827-35.834-29.305-60.25-29.305-42.307 0-76.727 34.419-76.727 76.727 0 21.226 8.474 40.974 23.858 55.605 1.742 1.657 3.553 3.22 5.421 4.693-19.169 36.493-29.279 77.477-29.279 118.975 0 57.834 18.817 112.406 54.418 157.817.192.245.397.473.611.687-.223 1.624-.127 3.307.319 4.969l13.473 50.28c1.169 4.365 4.474 7.669 8.838 8.839 1.097.293 2.201.438 3.293.438 3.256 0 6.389-1.28 8.782-3.673l13.744-13.744c44.332 32.983 96.918 50.387 152.523 50.387 41.623 0 82.729-10.171 119.305-29.454 1.749 2.201 3.615 4.324 5.617 6.345.777 1.494 2.04 2.691 3.581 3.386 14.051 12.504 31.958 19.351 50.923 19.351 19.172 0 37.27-6.987 51.389-19.752.956-.573 1.777-1.347 2.395-2.272.155-.152.317-.295.471-.449 14.491-14.492 22.472-33.759 22.472-54.254zm-82.343-384.589 11.231 41.915-41.915-11.231 15.373-15.373c.005-.005.01-.01.015-.015zm-414.811 26.415c0-34.037 27.69-61.727 61.728-61.727 34.036 0 61.727 27.69 61.727 61.727 0 10.48-2.604 20.558-7.489 29.507-2.774-9.517-11.297-16.604-21.543-17.229 1.636-4.06 2.546-8.488 2.546-13.127v-11.011c0-19.432-15.809-35.241-35.241-35.241s-35.24 15.809-35.24 35.241v11.012c0 4.639.91 9.067 2.546 13.127-10.254.625-18.782 7.723-21.549 17.251-4.887-8.937-7.485-19.006-7.485-29.53zm21.53 46.842v-10.638c0-4.949 4.026-8.975 8.976-8.975h9.955c5.915 4.491 13.284 7.163 21.267 7.163s15.351-2.672 21.267-7.163h9.954c4.949 0 8.976 4.026 8.976 8.975v10.622c-11.186 9.632-25.282 14.902-40.196 14.902-14.855-.001-29.009-5.266-40.199-14.886zm60.438-47.69c0 11.161-9.08 20.241-20.24 20.241h-.001c-11.16 0-20.24-9.08-20.24-20.241v-11.012c0-11.161 9.08-20.241 20.241-20.241 11.16 0 20.24 9.08 20.24 20.241zm-14.78 385.81-11.231-41.915 41.915 11.231zm173.812 35.311c-51.604 0-100.441-15.922-141.795-46.115l12.336-12.336c3.195-3.195 4.404-7.709 3.235-12.074-1.17-4.365-4.475-7.669-8.839-8.838l-50.28-13.472c-1.666-.447-3.354-.541-4.983-.316-33.15-42.603-50.674-93.704-50.674-147.849 0-38.639 9.3-76.8 26.956-110.859 10.662 5.429 22.525 8.313 34.772 8.313 19.658 0 38.176-7.361 52.445-20.751.265-.217.509-.456.742-.707.354-.341.718-.667 1.067-1.016 14.491-14.492 22.473-33.76 22.473-54.254 0-12.504-3.026-24.308-8.354-34.749 34.07-17.67 72.247-26.978 110.9-26.978 51.604 0 100.441 15.922 141.795 46.115l-12.336 12.336c-3.195 3.195-4.404 7.709-3.235 12.074 1.17 4.365 4.475 7.669 8.839 8.838l50.28 13.472c1.097.294 2.202.438 3.294.438.567 0 1.127-.053 1.683-.129 33.153 42.606 50.679 93.71 50.679 147.857 0 38.495-9.235 76.53-26.766 110.494-24.708-12.614-55.005-11.137-78.766 5.508-3.393 2.376-4.217 7.053-1.84 10.446 2.375 3.393 7.051 4.217 10.445 1.84 24.546-17.194 57.771-14.265 79.001 6.966 11.659 11.659 18.08 27.16 18.08 43.648 0 10.601-2.668 20.787-7.662 29.813-2.794-9.483-11.302-16.539-21.524-17.162 1.636-4.06 2.546-8.488 2.546-13.127v-11.013c0-19.432-15.809-35.241-35.24-35.241-19.432 0-35.241 15.809-35.241 35.241v11.012c0 4.639.91 9.067 2.546 13.127-10.091.615-18.516 7.496-21.418 16.795-4.615-8.489-7.191-18.004-7.439-27.887-.26-10.323 2.079-20.604 6.764-29.732 1.891-3.686.437-8.206-3.249-10.097-3.685-1.89-8.205-.437-10.097 3.249-5.826 11.354-8.735 24.134-8.414 36.957.293 11.668 3.212 22.916 8.418 33.058-34.131 17.751-72.397 27.105-111.144 27.105zm159.032-62.575v-11.012c0-11.161 9.08-20.241 20.241-20.241 11.16 0 20.24 9.08 20.24 20.241v11.012c0 11.161-9.08 20.241-20.24 20.241-11.161 0-20.241-9.08-20.241-20.241zm-19.955 47.169v-10.117c0-4.949 4.026-8.975 8.975-8.975h9.955c5.915 4.491 13.284 7.164 21.267 7.164s15.351-2.672 21.267-7.164h9.954c4.949 0 8.976 4.026 8.976 8.975v10.383c-11.161 9.548-25.197 14.769-40.043 14.769-14.984-.001-29.141-5.319-40.351-15.035z" data-original="#000000" class="active-path" data-old_color="#000000" fill="#8BC852"/><path d="m304.197 275.63c-2.929 2.929-2.929 7.678 0 10.607 2.93 2.929 7.678 2.929 10.607 0l23.279-23.279c20.733-20.732 20.733-54.467 0-75.2-10.044-10.044-23.397-15.575-37.6-15.575s-27.557 5.531-37.601 15.575l-6.882 6.883-6.883-6.883c-10.044-10.044-23.397-15.575-37.6-15.575s-27.557 5.531-37.601 15.575c-20.732 20.733-20.732 54.468 0 75.2l73.43 73.43c2.313 2.311 5.386 3.584 8.654 3.584 3.271 0 6.344-1.273 8.655-3.585l27.09-27.09c2.929-2.929 2.929-7.678 0-10.606-2.93-2.929-7.678-2.929-10.607 0l-25.138 25.137-71.477-71.477c-14.885-14.884-14.885-39.102 0-53.987 14.883-14.884 39.104-14.884 53.986 0l12.186 12.187c1.407 1.407 3.314 2.197 5.304 2.197 1.989 0 3.896-.79 5.304-2.197l12.186-12.187c7.21-7.21 16.796-11.181 26.993-11.181s19.783 3.971 26.993 11.181c7.211 7.21 11.182 16.797 11.182 26.994 0 10.196-3.971 19.783-11.182 26.993z" data-original="#000000" class="active-path" data-old_color="#000000" fill="#8BC852"/><path d="m353.251 158.617c-49.135-49.133-127.482-54.058-182.247-11.457-3.269 2.544-3.858 7.255-1.314 10.525s7.257 3.857 10.525 1.315c48.806-37.968 118.635-33.569 162.429 10.224 47.974 47.973 47.974 126.031 0 174.004s-126.031 47.972-174.003 0c-43.796-43.795-48.191-113.624-10.224-162.429 2.543-3.269 1.954-7.982-1.314-10.524-3.27-2.543-7.98-1.957-10.525 1.314-42.603 54.763-37.678 133.112 11.456 182.246 26.911 26.911 62.26 40.366 97.608 40.366 35.35 0 70.698-13.455 97.609-40.366 53.821-53.823 53.821-141.397 0-195.218z" data-original="#000000" class="active-path" data-old_color="#000000" fill="#8BC852"/></g></g> </svg>
